<svg width="53" height="19" viewBox="0 0 53 19" fill="none" xmlns="http://www.w3.org/2000/svg">
<path d="M5.976 18V11.808L0.408 1.2H3.288L7.248 9.312L11.184 1.2H14.04L8.52 11.808V18H5.976ZM19.5041 18.288C18.3681 18.288 17.3441 18.032 16.4321 17.52C15.5361 16.992 14.8241 16.264 14.2961 15.336C13.7681 14.392 13.5041 13.296 13.5041 12.048C13.5041 10.8 13.7681 9.712 14.2961 8.784C14.8401 7.84 15.5681 7.112 16.4801 6.6C17.3921 6.072 18.4081 5.808 19.5281 5.808C20.6641 5.808 21.6801 6.072 22.5761 6.6C23.4881 7.112 24.2081 7.84 24.7361 8.784C25.2801 9.712 25.5521 10.8 25.5521 12.048C25.5521 13.296 25.2801 14.392 24.7361 15.336C24.2081 16.264 23.4881 16.992 22.5761 17.52C21.6641 18.032 20.6401 18.288 19.5041 18.288ZM19.5041 16.104C20.1121 16.104 20.6721 15.952 21.1841 15.648C21.7121 15.344 22.1361 14.896 22.4561 14.304C22.7761 13.696 22.9361 12.944 22.9361 12.048C22.9361 11.152 22.7761 10.408 22.4561 9.816C22.1521 9.208 21.7361 8.752 21.2081 8.448C20.6961 8.144 20.1361 7.992 19.5281 7.992C18.9201 7.992 18.3521 8.144 17.8241 8.448C17.3121 8.752 16.8961 9.208 16.5761 9.816C16.2561 10.408 16.0961 11.152 16.0961 12.048C16.0961 12.944 16.2561 13.696 16.5761 14.304C16.8961 14.896 17.3121 15.344 17.8241 15.648C18.3361 15.952 18.8961 16.104 19.5041 16.104ZM32.6953 18.288C31.2553 18.288 30.1193 17.84 29.2873 16.944C28.4713 16.048 28.0633 14.712 28.0633 12.936V6.096H30.6073V12.672C30.6073 14.976 31.5513 16.128 33.4393 16.128C34.3833 16.128 35.1593 15.792 35.7673 15.12C36.3753 14.448 36.6793 13.488 36.6793 12.24V6.096H39.2233V18H36.9673L36.7753 15.912C36.4073 16.648 35.8633 17.232 35.1433 17.664C34.4393 18.08 33.6233 18.288 32.6953 18.288ZM44.3076 13.032L44.2116 9.12H45.1236C45.9876 9.12 46.7796 9.04 47.4996 8.88C48.2356 8.72 48.8196 8.408 49.2516 7.944C49.6996 7.48 49.9236 6.792 49.9236 5.88C49.9236 5 49.6516 4.312 49.1076 3.816C48.5636 3.304 47.8516 3.048 46.9716 3.048C46.0596 3.048 45.3396 3.296 44.8116 3.792C44.2836 4.288 44.0196 4.96 44.0196 5.808H41.6196C41.6036 4.848 41.8116 4 42.2436 3.264C42.6916 2.528 43.3156 1.952 44.1156 1.536C44.9316 1.12 45.8836 0.912 46.9716 0.912C48.0276 0.912 48.9636 1.112 49.7796 1.512C50.5956 1.912 51.2276 2.488 51.6756 3.24C52.1396 3.976 52.3716 4.864 52.3716 5.904C52.3716 7.04 52.1236 7.976 51.6276 8.712C51.1316 9.432 50.4516 9.968 49.5876 10.32C48.7236 10.656 47.7316 10.824 46.6116 10.824L46.5396 13.032H44.3076ZM45.4356 18.144C44.9396 18.144 44.5396 17.992 44.2356 17.688C43.9316 17.368 43.7796 16.992 43.7796 16.56C43.7796 16.112 43.9316 15.736 44.2356 15.432C44.5396 15.112 44.9396 14.952 45.4356 14.952C45.8996 14.952 46.2836 15.112 46.5876 15.432C46.9076 15.736 47.0676 16.112 47.0676 16.56C47.0676 16.992 46.9076 17.368 46.5876 17.688C46.2836 17.992 45.8996 18.144 45.4356 18.144Z" fill="#9A54BC"/>
</svg>
